<?xml version="1.0" encoding="iso-8859-1"?>
<!-- Generator: Adobe Illustrator 19.0.0, SVG Export Plug-In . SVG Version: 6.00 Build 0)  -->
<svg version="1.1" id="Layer_1" xmlns="http://www.w3.org/2000/svg" xmlns:xlink="http://www.w3.org/1999/xlink" x="0px" y="0px"
	 viewBox="0 0 300.015 300.015" style="enable-background:new 0 0 300.015 300.015;" xml:space="preserve">
<g>
	<g>
		<g>
			<path d="M150,0C67.297,0,0,67.29,0,150c0,82.718,67.297,150.015,150,150.015c82.718,0,150.015-67.297,150.015-150.015
				C300.015,67.29,232.718,0,150,0z M150,285.015c-74.438,0-135-60.563-135-135.015C15,75.563,75.562,15,150,15
				c74.453,0,135.015,60.562,135.015,135C285.015,224.453,224.453,285.015,150,285.015z"/>
			<path d="M254.093,93.953c-1.965-3.638-6.51-5.003-10.155-3.045l-97.485,52.508c-3.638,1.957-5.01,6.517-3.045,10.162
				c1.357,2.505,3.945,3.93,6.615,3.93c1.2,0,2.415-0.285,3.547-0.893l97.485-52.507C254.685,102.15,256.058,97.59,254.093,93.953z"
				/>
		</g>
	</g>
</g>
<g>
</g>
<g>
</g>
<g>
</g>
<g>
</g>
<g>
</g>
<g>
</g>
<g>
</g>
<g>
</g>
<g>
</g>
<g>
</g>
<g>
</g>
<g>
</g>
<g>
</g>
<g>
</g>
<g>
</g>
</svg>
